<?xml version="1.0" standalone="no"?>
<!DOCTYPE svg PUBLIC "-//W3C//DTD SVG 20010904//EN"
 "http://www.w3.org/TR/2001/REC-SVG-20010904/DTD/svg10.dtd">
<svg version="1.0" xmlns="http://www.w3.org/2000/svg"
 width="1600.000000pt" height="1600.000000pt" viewBox="0 0 1600.000000 1600.000000"
 preserveAspectRatio="xMidYMid meet">
<metadata>
Created by potrace 1.14, written by Peter Selinger 2001-2017
</metadata>
<g transform="translate(0.000000,1600.000000) scale(0.100000,-0.100000)"
fill="#000000" stroke="none">
<path d="M7555 14790 c-335 -13 -759 -66 -1085 -136 -445 -95 -880 -232 -1265
-397 -406 -173 -783 -379 -1143 -624 -470 -319 -937 -732 -1292 -1143 -36 -41
-67 -77 -70 -80 -21 -19 -164 -198 -252 -315 -511 -680 -892 -1453 -1113
-2258 -112 -407 -168 -712 -217 -1167 -29 -279 -32 -989 -5 -1255 51 -484 110
-805 227 -1231 87 -314 191 -601 346 -954 89 -204 262 -529 403 -759 265 -433
648 -916 986 -1245 414 -403 747 -668 1180 -940 872 -550 1853 -891 2875
-1000 529 -57 1210 -47 1665 24 33 5 107 16 165 25 430 67 931 203 1360 370
1186 462 2198 1233 2974 2265 765 1016 1222 2238 1326 3545 15 181 20 690 10
865 -23 367 -71 728 -141 1065 -21 98 -91 380 -109 440 -137 441 -197 605
-330 905 -46 104 -205 426 -247 499 -272 475 -493 790 -827 1181 -85 99 -504
525 -591 601 -515 448 -937 734 -1485 1008 -382 191 -825 365 -1145 451 -16 4
-88 24 -160 43 -71 19 -175 44 -230 56 -55 12 -118 26 -140 31 -267 62 -718
116 -1093 130 -267 10 -292 10 -577 0z m865 -4787 c158 -611 359 -1142 755
-1998 139 -301 283 -642 273 -649 -1 -1 -55 -19 -118 -40 -278 -91 -798 -294
-1063 -415 -36 -17 -92 -41 -124 -55 -32 -13 -105 -47 -163 -74 -266 -126
-554 -251 -805 -352 -129 -52 -397 -151 -399 -148 -1 2 -22 57 -45 123 -118
328 -351 889 -585 1407 -13 29 -38 87 -55 128 -18 41 -36 84 -41 95 -48 107
-172 418 -249 623 -89 239 -114 313 -104 321 4 5 42 18 83 31 203 61 585 196
738 259 26 11 103 42 172 69 156 62 541 226 788 336 362 161 898 385 923 386
4 0 12 -21 19 -47z"/>
</g>
</svg>
